<svg width="22" height="26" viewBox="0 0 22 26" fill="none" xmlns="http://www.w3.org/2000/svg">
<path fill-rule="evenodd" clip-rule="evenodd" d="M3.13307 25.4586C1.40988 25.4586 1.6082e-07 24.0487 1.49105e-07 22.3255L7.4635e-08 11.3719L7.88626 11.3719L7.88626 11.3598L12.6263 11.3598C13.8482 11.3285 14.8821 10.2632 14.8821 9.00999C14.8821 7.72543 13.8168 6.66018 12.5323 6.66018L6.26614 6.66018L6.26614 6.66217L4.26149e-08 6.66217L2.13006e-08 3.52711C9.58529e-09 1.80392 1.40988 0.394043 3.13307 0.394043L12.5323 0.394043C14.9134 0.394043 16.9499 1.23997 18.6104 2.93183C20.3023 4.59236 21.1482 6.62885 21.1482 9.00999C21.1482 11.3598 20.3336 13.3963 18.6731 15.0568C17.0126 16.7173 15.0074 17.5946 12.6576 17.6259L6.26614 17.6259L6.26614 22.3255C6.26614 24.0487 4.85626 25.4586 3.13307 25.4586Z" fill="#02BC6B"/>
</svg>
